<?xml version="1.0" encoding="UTF-8" standalone="no"?>
<!DOCTYPE svg PUBLIC "-//W3C//DTD SVG 1.1//EN" "http://www.w3.org/Graphics/SVG/1.1/DTD/svg11.dtd">
<svg width="24.00" height="24.00" viewBox="0.00 0.00 400.00 400.00" xmlns="http://www.w3.org/2000/svg" xmlns:xlink="http://www.w3.org/1999/xlink">
<g stroke-linecap="round" transform="translate(-1.00, 0.00)" id="Capa_2_-_copia_2">
<path d="M259.26,327.78 L259.26,327.78 Z" fill="none" stroke="rgb(255, 255, 255)" stroke-width="15.00" stroke-opacity="1.00" stroke-linejoin="miter"/>
<path d="M264.32,329.67 C264.32,329.67 258.56,327.73 258.56,327.73 C253.49,330.08 239.00,336.83 232.85,338.97 C225.26,341.59 210.39,344.45 202.78,345.03 C195.28,345.59 180.26,345.31 173.05,344.37 C165.70,343.38 151.14,339.88 144.14,337.50 C137.17,335.11 123.93,328.69 117.49,324.79 C111.05,320.87 99.23,312.06 93.91,306.96 C88.59,301.84 78.77,290.43 74.49,284.41 C70.24,278.39 63.29,265.39 60.37,258.45 C57.47,251.50 53.08,237.42 51.77,230.17 C50.48,222.90 49.24,207.89 49.32,200.51 C49.42,193.15 51.43,178.53 53.15,171.20 C54.89,163.88 59.62,149.91 62.82,143.28 C66.05,136.64 73.87,123.76 78.27,117.84 C82.68,111.94 92.90,101.30 98.60,96.38 C104.31,91.48 116.35,82.95 122.83,79.47 C129.35,76.00 143.24,70.18 150.29,67.97 C157.32,65.79 171.84,63.19 179.34,62.56 C186.85,61.95 201.59,62.13 208.89,63.13 C216.20,64.15 230.86,67.60 237.86,69.96 C244.69,72.28 258.13,78.51 264.30,82.08 C270.72,85.81 282.64,95.17 288.43,101.11 C294.28,107.16 311.84,129.40 312.95,131.38" fill="none" stroke="rgb(255, 255, 255)" stroke-width="15.00" stroke-opacity="0.99" stroke-linejoin="round"/>
<path d="M234.52,277.89 C325.03,172.35 149.50,133.60 149.50,133.60" fill="none" stroke="rgb(255, 255, 255)" stroke-width="15.00" stroke-opacity="1.00" stroke-linejoin="round"/>
<path d="M232.30,277.60 C106.67,302.35 150.05,134.30 150.05,134.30" fill="none" stroke="rgb(255, 255, 255)" stroke-width="15.00" stroke-opacity="1.00" stroke-linejoin="round"/>
</g>
<g stroke-linecap="round" transform="translate(-1.00, 0.00)" id="Capa_3_-_copia">
<path d="M188.82,201.80 L260.50,328.24" fill="none" stroke="rgb(255, 255, 255)" stroke-width="15.00" stroke-opacity="1.00" stroke-linejoin="miter"/>
</g>
<g stroke-linecap="round" transform="translate(-1.00, 0.00)" id="Capa_5_-_copia"/>
<g stroke-linecap="round" transform="translate(-9.00, -148.00)" id="Capa_1_-_copia_2">
<path d="M326.99,286.87 C329.66,286.43 337.32,285.19 340.14,285.33 C343.83,285.56 349.86,288.20 352.88,290.85 C358.62,296.02 363.84,305.96 365.24,308.72" fill="none" stroke="rgb(255, 255, 255)" stroke-width="15.00" stroke-opacity="1.00" stroke-linejoin="miter"/>
<path d="M365.24,308.72 C365.24,308.72 324.94,331.26 324.94,331.26" fill="none" stroke="rgb(255, 255, 255)" stroke-width="15.00" stroke-opacity="1.00" stroke-linejoin="miter"/>
<path d="M324.94,331.26 C323.42,328.57 319.13,320.96 317.81,318.05 C316.05,314.09 314.67,307.16 315.36,303.86 C316.52,298.78 323.66,289.57 324.43,288.57" fill="none" stroke="rgb(255, 255, 255)" stroke-width="15.00" stroke-opacity="1.00" stroke-linejoin="miter"/>
<path d="M335.02,328.53 C335.02,328.53 345.09,345.95 345.09,345.95" fill="none" stroke="rgb(255, 255, 255)" stroke-width="15.00" stroke-opacity="1.00" stroke-linejoin="miter"/>
<path d="M357.05,314.53 C357.05,314.53 367.12,334.68 367.12,334.68" fill="none" stroke="rgb(255, 255, 255)" stroke-width="15.00" stroke-opacity="1.00" stroke-linejoin="miter"/>
</g>
</svg>
